<svg width="24" height="24" viewBox="0 0 24 24" fill="none" xmlns="http://www.w3.org/2000/svg">
<path d="M12 14.5714C13.4202 14.5714 14.5714 13.4202 14.5714 12C14.5714 10.5799 13.4202 9.42859 12 9.42859C10.5799 9.42859 9.42859 10.5799 9.42859 12C9.42859 13.4202 10.5799 14.5714 12 14.5714Z" stroke="#9095A1" stroke-width="2.05714" stroke-miterlimit="10" stroke-linecap="square"/>
<path d="M18.8571 12C18.8561 11.5062 18.8021 11.0139 18.6959 10.5317L21.0222 8.77027L19.3079 5.80113L16.6139 6.9377C15.8844 6.26887 15.0185 5.76618 14.0759 5.46427L13.7142 2.57141L10.2857 2.57141L9.92395 5.46427C8.98139 5.76618 8.11549 6.26887 7.38595 6.9377L4.69195 5.80113L2.97766 8.77027L5.30395 10.5317C5.08914 11.4988 5.08914 12.5012 5.30395 13.4683L2.97766 15.2297L4.69195 18.1988L7.38595 17.0623C8.11549 17.7311 8.98139 18.2338 9.92395 18.5357L10.2857 21.4286H13.7142L14.0759 18.5357C15.0185 18.2338 15.8844 17.7311 16.6139 17.0623L19.3079 18.1988L21.0222 15.2297L18.6959 13.4683C18.8021 12.986 18.8561 12.4938 18.8571 12Z" stroke="#9095A1" stroke-width="2.05714" stroke-miterlimit="10" stroke-linecap="square"/>
</svg>
