<svg width="95" height="32" viewBox="0 0 95 32" fill="none" xmlns="http://www.w3.org/2000/svg">
<path d="M41.8536 20.2126H47.1706C47.1706 21.9378 45.7678 23.3364 44.0374 23.3364H37.7946V10.77C37.7946 8.53496 39.6119 6.72314 41.8536 6.72314V20.2126Z" fill="#171A1F"/>
<path d="M54.6229 23.5418C53.3253 23.5418 52.1542 23.2656 51.1098 22.7135C50.0813 22.1612 49.2663 21.3724 48.6649 20.3469C48.0795 19.3214 47.7867 18.1223 47.7867 16.7497C47.7867 15.3929 48.0874 14.2017 48.6887 13.1762C49.29 12.1349 50.1129 11.3381 51.1573 10.7859C52.2017 10.2338 53.3728 9.95764 54.6704 9.95764C55.968 9.95764 57.139 10.2338 58.1834 10.7859C59.2278 11.3381 60.0505 12.1349 60.6517 13.1762C61.2535 14.2017 61.5538 15.3929 61.5538 16.7497C61.5538 18.1065 61.2457 19.3056 60.6283 20.3469C60.0271 21.3724 59.1961 22.1612 58.1359 22.7135C57.0915 23.2656 55.9205 23.5418 54.6229 23.5418ZM54.6229 20.0392C55.3982 20.0392 56.055 19.7552 56.593 19.1873C57.1469 18.6193 57.4238 17.8068 57.4238 16.7497C57.4238 15.6926 57.1548 14.8801 56.6168 14.3121C56.0945 13.7441 55.4457 13.4601 54.6704 13.4601C53.8791 13.4601 53.2224 13.7441 52.7002 14.3121C52.178 14.8643 51.9169 15.6768 51.9169 16.7497C51.9169 17.8068 52.1701 18.6193 52.6765 19.1873C53.1987 19.7552 53.8475 20.0392 54.6229 20.0392Z" fill="#171A1F"/>
<path d="M68.782 9.97565C69.716 9.97565 70.5308 10.1649 71.2271 10.5436C71.9391 10.9223 72.4849 11.4192 72.8646 12.0345C72.8646 11.002 73.7041 10.1649 74.7398 10.1649H76.9238V23.3468C76.9238 24.5616 76.6782 25.6581 76.1878 26.6363C75.7129 27.6302 74.9775 28.4191 73.9804 29.0028C72.9994 29.5866 71.773 29.8785 70.3016 29.8785C68.3391 29.8785 66.7485 29.4131 65.5305 28.4822C64.3118 27.5671 63.6156 26.3207 63.4416 24.743H67.4526C67.5796 25.2479 67.8799 25.6423 68.3547 25.9263C68.8296 26.226 69.4151 26.376 70.1114 26.376C70.9503 26.376 71.6147 26.1314 72.1052 25.6423C72.6119 25.169 72.8646 24.4038 72.8646 23.3468V21.4772C72.4692 22.0925 71.9234 22.5974 71.2271 22.9917C70.5308 23.3704 69.716 23.5598 68.782 23.5598C67.6903 23.5598 66.701 23.2836 65.8151 22.7315C64.9287 22.1634 64.2246 21.3667 63.7022 20.3412C63.1961 19.2999 62.9427 18.1008 62.9427 16.744C62.9427 15.3872 63.1961 14.196 63.7022 13.1705C64.2246 12.145 64.9287 11.3561 65.8151 10.8039C66.701 10.2518 67.6903 9.97565 68.782 9.97565ZM72.8646 16.7677C72.8646 15.758 72.58 14.9612 72.0101 14.3775C71.4564 13.7937 70.7758 13.5018 69.9688 13.5018C69.1617 13.5018 68.4733 13.7937 67.904 14.3775C67.3497 14.9454 67.0729 15.7343 67.0729 16.744C67.0729 17.7537 67.3497 18.5584 67.904 19.1579C68.4733 19.7417 69.1617 20.0336 69.9688 20.0336C70.7758 20.0336 71.4564 19.7417 72.0101 19.1579C72.58 18.5742 72.8646 17.7774 72.8646 16.7677Z" fill="#171A1F"/>
<path d="M85.2121 23.5418C83.9146 23.5418 82.7435 23.2656 81.6988 22.7135C80.6703 22.1612 79.8554 21.3724 79.2542 20.3469C78.6687 19.3214 78.3756 18.1223 78.3756 16.7497C78.3756 15.3929 78.6765 14.2017 79.2777 13.1762C79.8789 12.1349 80.7022 11.3381 81.7463 10.7859C82.791 10.2338 83.9621 9.95764 85.2596 9.95764C86.5571 9.95764 87.7282 10.2338 88.7723 10.7859C89.817 11.3381 90.6397 12.1349 91.2409 13.1762C91.8427 14.2017 92.143 15.3929 92.143 16.7497C92.143 18.1065 91.8343 19.3056 91.2174 20.3469C90.6162 21.3724 89.7851 22.1612 88.7248 22.7135C87.6806 23.2656 86.5095 23.5418 85.2121 23.5418ZM85.2121 20.0392C85.9872 20.0392 86.6443 19.7552 87.1824 19.1873C87.736 18.6193 88.0128 17.8068 88.0128 16.7497C88.0128 15.6926 87.7438 14.8801 87.2058 14.3121C86.6835 13.7441 86.0347 13.4601 85.2596 13.4601C84.4682 13.4601 83.8117 13.7441 83.2893 14.3121C82.7669 14.8643 82.5058 15.6768 82.5058 16.7497C82.5058 17.8068 82.7591 18.6193 83.2658 19.1873C83.7876 19.7552 84.4363 20.0392 85.2121 20.0392Z" fill="#171A1F"/>
<path d="M22.0112 14.9025C25.3348 14.9025 28.0292 12.2162 28.0292 8.90247C28.0292 5.58879 25.3348 2.9025 22.0112 2.9025C18.6876 2.9025 15.9932 5.58879 15.9932 8.90247C15.9932 12.2162 18.6876 14.9025 22.0112 14.9025Z" fill="#15ABFF"/>
<path d="M22.0112 29.3925C25.3348 29.3925 28.0292 26.7062 28.0292 23.3925C28.0292 20.0788 25.3348 17.3925 22.0112 17.3925C18.6876 17.3925 15.9932 20.0788 15.9932 23.3925C15.9932 26.7062 18.6876 29.3925 22.0112 29.3925Z" fill="#FF56A5"/>
<path d="M2.06512 13.1525C2.06512 7.51918 6.64554 2.95248 12.2957 2.95248V19.1525C12.2957 24.7858 7.7153 29.3525 2.06512 29.3525V13.1525Z" fill="#6D31ED"/>
</svg>
