<svg width="95" height="32" viewBox="0 0 95 32" fill="none" xmlns="http://www.w3.org/2000/svg">
<path d="M41.8535 20.2126H47.1705C47.1705 21.9378 45.7677 23.3364 44.0373 23.3364H37.7946V10.7699C37.7946 8.53493 39.6118 6.72311 41.8535 6.72311V20.2126Z" fill="#171A1F"/>
<path d="M54.6228 23.5418C53.3252 23.5418 52.1541 23.2656 51.1097 22.7135C50.0812 22.1612 49.2662 21.3724 48.6648 20.3469C48.0793 19.3214 47.7866 18.1223 47.7866 16.7497C47.7866 15.3929 48.0873 14.2017 48.6886 13.1762C49.2899 12.1349 50.1128 11.3381 51.1572 10.7859C52.2016 10.2338 53.3726 9.95764 54.6702 9.95764C55.9679 9.95764 57.1388 10.2338 58.1833 10.7859C59.2277 11.3381 60.0504 12.1349 60.6516 13.1762C61.2534 14.2017 61.5537 15.3929 61.5537 16.7497C61.5537 18.1065 61.2456 19.3056 60.6281 20.3469C60.0269 21.3724 59.196 22.1612 58.1358 22.7135C57.0914 23.2656 55.9204 23.5418 54.6228 23.5418ZM54.6228 20.0392C55.3981 20.0392 56.0549 19.7552 56.5929 19.1873C57.1468 18.6193 57.4237 17.8068 57.4237 16.7497C57.4237 15.6926 57.1547 14.8801 56.6167 14.3121C56.0944 13.7441 55.4456 13.4601 54.6702 13.4601C53.879 13.4601 53.2223 13.7441 52.7001 14.3121C52.1779 14.8643 51.9168 15.6768 51.9168 16.7497C51.9168 17.8068 52.17 18.6193 52.6764 19.1873C53.1985 19.7552 53.8473 20.0392 54.6228 20.0392Z" fill="#171A1F"/>
<path d="M68.7819 9.97563C69.7159 9.97563 70.5307 10.1649 71.227 10.5436C71.9389 10.9223 72.4848 11.4192 72.8645 12.0345C72.8645 11.002 73.704 10.1649 74.7397 10.1649H76.9236V23.3468C76.9236 24.5616 76.6781 25.6581 76.1876 26.6363C75.7128 27.6302 74.9774 28.4191 73.9802 29.0028C72.9993 29.5866 71.7728 29.8785 70.3014 29.8785C68.339 29.8785 66.7484 29.4131 65.5304 28.4822C64.3117 27.5671 63.6154 26.3207 63.4415 24.743H67.4525C67.5795 25.2479 67.8798 25.6423 68.3546 25.9263C68.8294 26.226 69.415 26.376 70.1113 26.376C70.9502 26.376 71.6146 26.1314 72.105 25.6423C72.6117 25.169 72.8645 24.4038 72.8645 23.3468V21.4772C72.4691 22.0925 71.9233 22.5974 71.227 22.9917C70.5307 23.3704 69.7159 23.5598 68.7819 23.5598C67.6902 23.5598 66.7009 23.2836 65.815 22.7315C64.9286 22.1634 64.2245 21.3667 63.7021 20.3412C63.196 19.2999 62.9426 18.1008 62.9426 16.744C62.9426 15.3872 63.196 14.196 63.7021 13.1705C64.2245 12.145 64.9286 11.3561 65.815 10.8039C66.7009 10.2518 67.6902 9.97563 68.7819 9.97563ZM72.8645 16.7677C72.8645 15.758 72.5799 14.9612 72.0099 14.3775C71.4563 13.7937 70.7757 13.5018 69.9686 13.5018C69.1616 13.5018 68.4732 13.7937 67.9039 14.3775C67.3496 14.9454 67.0728 15.7343 67.0728 16.744C67.0728 17.7537 67.3496 18.5584 67.9039 19.1579C68.4732 19.7417 69.1616 20.0336 69.9686 20.0336C70.7757 20.0336 71.4563 19.7417 72.0099 19.1579C72.5799 18.5742 72.8645 17.7774 72.8645 16.7677Z" fill="#171A1F"/>
<path d="M85.2121 23.5418C83.9146 23.5418 82.7435 23.2656 81.6988 22.7135C80.6703 22.1612 79.8554 21.3724 79.2542 20.3469C78.6687 19.3214 78.3756 18.1223 78.3756 16.7497C78.3756 15.3929 78.6765 14.2017 79.2777 13.1762C79.8789 12.1349 80.7022 11.3381 81.7463 10.7859C82.791 10.2338 83.9621 9.95764 85.2596 9.95764C86.5571 9.95764 87.7282 10.2338 88.7723 10.7859C89.817 11.3381 90.6397 12.1349 91.2409 13.1762C91.8427 14.2017 92.143 15.3929 92.143 16.7497C92.143 18.1065 91.8343 19.3056 91.2174 20.3469C90.6162 21.3724 89.7851 22.1612 88.7248 22.7135C87.6806 23.2656 86.5095 23.5418 85.2121 23.5418ZM85.2121 20.0392C85.9872 20.0392 86.6443 19.7552 87.1824 19.1873C87.736 18.6193 88.0128 17.8068 88.0128 16.7497C88.0128 15.6926 87.7438 14.8801 87.2058 14.3121C86.6835 13.7441 86.0347 13.4601 85.2596 13.4601C84.4682 13.4601 83.8117 13.7441 83.2893 14.3121C82.7669 14.8643 82.5058 15.6768 82.5058 16.7497C82.5058 17.8068 82.7591 18.6193 83.2658 19.1873C83.7876 19.7552 84.4363 20.0392 85.2121 20.0392Z" fill="#171A1F"/>
<path d="M22.0112 14.9025C25.3348 14.9025 28.0292 12.2162 28.0292 8.90246C28.0292 5.58877 25.3348 2.90248 22.0112 2.90248C18.6875 2.90248 15.9932 5.58877 15.9932 8.90246C15.9932 12.2162 18.6875 14.9025 22.0112 14.9025Z" fill="#15ABFF"/>
<path d="M22.0112 29.3925C25.3348 29.3925 28.0292 26.7062 28.0292 23.3925C28.0292 20.0788 25.3348 17.3925 22.0112 17.3925C18.6875 17.3925 15.9932 20.0788 15.9932 23.3925C15.9932 26.7062 18.6875 29.3925 22.0112 29.3925Z" fill="#FF56A5"/>
<path d="M2.06506 13.1525C2.06506 7.51918 6.64548 2.95248 12.2957 2.95248V19.1525C12.2957 24.7858 7.71524 29.3525 2.06506 29.3525V13.1525Z" fill="#6D31ED"/>
</svg>
