<svg width="20" height="20" viewBox="0 0 20 20" fill="none" xmlns="http://www.w3.org/2000/svg">
<path d="M10 2C5.6 2 2 5.6 2 10C2 14.4 5.6 18 10 18C14.4 18 18 14.4 18 10C18 5.6 14.4 2 10 2ZM15.9 9H14C13.9 7.5 13.6 6.1 13.2 4.9C14.6 5.8 15.6 7.3 15.9 9ZM10 16C9.4 16 8.2 14.1 8 11H12C11.8 14.1 10.6 16 10 16ZM8 9C8.2 5.9 9.3 4 10 4C10.7 4 11.8 5.9 12 9L8 9ZM6.9 4.9C6.4 6.1 6.1 7.5 6 9H4.1C4.4 7.3 5.4 5.8 6.9 4.9ZM4.1 11L6 11C6.1 12.5 6.4 13.9 6.8 15.1C5.4 14.2 4.4 12.7 4.1 11ZM13.1 15.1C13.6 13.9 13.8 12.5 13.9 11H15.8C15.6 12.7 14.6 14.2 13.1 15.1Z" fill="#565D6D"/>
</svg>
